<?xml version="1.0" encoding="UTF-8" standalone="no"?>
<!-- Created with Inkscape (http://www.inkscape.org/) -->

<svg
   xmlns:dc="http://purl.org/dc/elements/1.1/"
   xmlns:cc="http://creativecommons.org/ns#"
   xmlns:rdf="http://www.w3.org/1999/02/22-rdf-syntax-ns#"
   xmlns:svg="http://www.w3.org/2000/svg"
   xmlns="http://www.w3.org/2000/svg"
   xmlns:sodipodi="http://sodipodi.sourceforge.net/DTD/sodipodi-0.dtd"
   xmlns:inkscape="http://www.inkscape.org/namespaces/inkscape"
   width="114"
   height="114"
   id="svg2"
   version="1.1"
   inkscape:version="0.48.2 r9819"
   sodipodi:docname="z.svg"
   inkscape:export-filename="/home/AD/ajz/development/github/aaronzirbes.github.com/img/z.png"
   inkscape:export-xdpi="90"
   inkscape:export-ydpi="90">
  <defs
     id="defs4">
    <filter
       inkscape:collect="always"
       id="filter3768"
       x="-0.21076078"
       width="1.4215216"
       y="-0.16211031"
       height="1.3242206">
      <feGaussianBlur
         inkscape:collect="always"
         stdDeviation="1.6002588"
         id="feGaussianBlur3770" />
    </filter>
  </defs>
  <sodipodi:namedview
     id="base"
     pagecolor="#ffffff"
     bordercolor="#666666"
     borderopacity="1.0"
     inkscape:pageopacity="0.0"
     inkscape:pageshadow="2"
     inkscape:zoom="0.64692983"
     inkscape:cx="69.225187"
     inkscape:cy="-176.48255"
     inkscape:document-units="px"
     inkscape:current-layer="layer1"
     showgrid="false"
     inkscape:window-width="1119"
     inkscape:window-height="788"
     inkscape:window-x="278"
     inkscape:window-y="167"
     inkscape:window-maximized="0" />
  <metadata
     id="metadata7">
    <rdf:RDF>
      <cc:Work
         rdf:about="">
        <dc:format>image/svg+xml</dc:format>
        <dc:type
           rdf:resource="http://purl.org/dc/dcmitype/StillImage" />
        <dc:title></dc:title>
      </cc:Work>
    </rdf:RDF>
  </metadata>
  <g
     inkscape:label="Layer 1"
     inkscape:groupmode="layer"
     id="layer1"
     transform="translate(0,-938.36218)">
    <path
       d="m 40.913864,54.541855 9.082031,0 0,-2.96875 c -1.7e-5,-0.963534 0.182275,-1.647127 0.546875,-2.050781 0.377586,-0.416658 0.865867,-0.624991 1.464844,-0.625 0.598939,9e-6 1.080709,0.208342 1.445313,0.625 0.377583,0.403654 0.566385,1.087247 0.566406,2.050781 l -0.01953,6.972656 -18.203125,0 0,-4.003906 12.207031,-15.664063 -7.382813,0 0,2.871094 c -7e-6,0.963558 -0.182299,1.653661 -0.546875,2.070313 -0.36459,0.40366 -0.84636,0.605482 -1.445312,0.605468 -0.598964,1.4e-5 -1.087244,-0.201808 -1.464844,-0.605468 -0.364587,-0.416652 -0.546879,-1.106755 -0.546875,-2.070313 l 0,-6.894531 16.5625,0.01953 0,3.90625 -12.265625,15.761719"
       style="font-size:40px;font-style:normal;font-variant:normal;font-weight:bold;font-stretch:normal;line-height:125%;letter-spacing:0px;word-spacing:0px;fill:#008000;fill-opacity:1;stroke:none;filter:url(#filter3768);font-family:Courier New;-inkscape-font-specification:Courier New Bold"
       id="path2994"
       inkscape:connector-curvature="0"
       transform="matrix(4.3082306,0,0,3.6587628,-136.47404,824.49775)" />
    <path
       inkscape:connector-curvature="0"
       id="path2990"
       style="font-size:40px;font-style:normal;font-variant:normal;font-weight:bold;font-stretch:normal;line-height:125%;letter-spacing:0px;word-spacing:0px;fill:#000000;fill-opacity:1;stroke:none;font-family:Courier New;-inkscape-font-specification:Courier New Bold"
       d="m 36.121132,1019.4161 39.127484,0 0,-10.8619 c -7.4e-5,-3.5254 0.785282,-6.0265 2.356063,-7.5033 1.626728,-1.52449 3.730355,-2.28669 6.310886,-2.28679 2.580367,1e-4 4.655944,0.7623 6.226742,2.28679 1.626714,1.4768 2.440117,3.9779 2.440207,7.5033 l -0.08414,25.5113 -78.42326,0 0,-14.6494 52.590704,-57.31104 -31.806861,0 0,10.50465 c -3e-5,3.52543 -0.785386,6.05035 -2.356063,7.57479 -1.570738,1.47689 -3.646315,2.21531 -6.226738,2.21526 -2.580475,5e-5 -4.684098,-0.73838 -6.310886,-2.21526 -1.570724,-1.52444 -2.35608,-4.04936 -2.356063,-7.57479 l 0,-25.22545 71.355069,0.0715 0,14.29205 -52.843141,57.66829" />
  </g>
</svg>
